Coordinates
version=1
nRows=21
nColumns=22
inDegrees=yes

Units are S.I. units (second, meters, Newtons, ...)
If the header above contains a line with 'inDegrees', this indicates whether rotational values are in degrees (yes) or radians (no).

endheader
time	pelvis_tilt	pelvis_list	pelvis_rotation	pelvis_tx	pelvis_ty	pelvis_tz	hip_flexion_r	hip_adduction_r	hip_rotation_r	knee_angle_r	ankle_angle_r	subtalar_angle_r	hip_flexion_l	hip_adduction_l	hip_rotation_l	knee_angle_l	ankle_angle_l	subtalar_angle_l	lumbar_extension	lumbar_bending	lumbar_rotation
      4.81000000	     -1.71920366	      1.26857728	    286.86506132	     -0.52744214	      0.91944928	      0.51066129	     25.96895821	     -2.58767692	      9.82113195	    -12.74571590	      4.39881921	     12.24928482	     -8.39562652	      7.86058649	     25.95519963	    -13.23902681	     13.79107425	    -15.14758903	     -6.18871479	     -5.76438462	    -11.62942190
      4.82000000	     -1.51033010	      1.06192089	    287.29926203	     -0.52697893	      0.91845841	      0.51973342	     25.52033269	     -2.38367857	      9.62367035	    -10.42875146	      4.35651457	     12.69402371	     -9.77923155	      7.51437930	     26.31689286	    -12.26643153	     13.81137889	    -15.03211752	     -6.36533577	     -6.02499732	    -11.60090952
      4.83000000	     -1.26866959	      0.90561241	    287.74162380	     -0.52638205	      0.91724941	      0.52884865	     25.14139328	     -2.23221945	      9.39543531	     -8.35857182	      4.35754125	     12.99164701	    -11.10084844	      7.21715750	     26.68107441	    -11.34211656	     13.81867561	    -14.90703476	     -6.50275452	     -6.31890448	    -11.63005014
      4.84000000	     -1.00515743	      0.81139200	    288.20889694	     -0.52562570	      0.91581262	      0.53799153	     24.85852198	     -2.13099616	      9.14581024	     -6.59158441	      4.38731848	     13.15665659	    -12.32276513	      6.97049200	     27.06275581	    -10.51510086	     13.81871832	    -14.77773846	     -6.58610905	     -6.63869816	    -11.72596012
      4.85000000	     -0.73251628	      0.78736387	    288.71294918	     -0.52466822	      0.91415471	      0.54712929	     24.69095636	     -2.07868613	      8.89592702	     -5.17182639	      4.42791586	     13.22145875	    -13.41117704	      6.77528033	     27.46751763	     -9.82780149	     13.82613356	    -14.65172553	     -6.60761546	     -6.96690490	    -11.89142424
      4.86000000	     -0.46514679	      0.83540951	    289.25478727	     -0.52348856	      0.91229255	      0.55624029	     24.64814538	     -2.06828521	      8.67356234	     -4.12737193	      4.44980611	     13.21407197	    -14.34099814	      6.63000203	     27.89176040	     -9.31929067	     13.86000285	    -14.53720973	     -6.56545839	     -7.28648435	    -12.11554195
      4.87000000	     -0.21901129	      0.94551615	    289.83049146	     -0.52207517	      0.91026819	      0.56532282	     24.72440179	     -2.08674950	      8.51043519	     -3.47369171	      4.41247349	     13.14971911	    -15.10556697	      6.52569476	     28.31938582	     -9.01568675	     13.93339494	    -14.44056042	     -6.46217701	     -7.57507724	    -12.37628492
      4.88000000	     -0.01535757	      1.12979418	    290.42698333	     -0.52046494	      0.90809854	      0.57436756	     24.93863858	     -2.11777575	      8.44231393	     -3.20962551	      4.24814061	     13.06328711	    -15.67341151	      6.45666874	     28.72943592	     -8.93859745	     14.04494761	    -14.37416927	     -6.27864993	     -7.81999261	    -12.64523561
      4.89000000	      0.12208966	      1.30475678	    291.03041868	     -0.51870231	      0.90594560	      0.58341820	     25.20888268	     -2.10590759	      8.47948232	     -3.32653557	      3.94170346	     12.91989453	    -16.14257397	      6.36222248	     29.10539818	     -9.04150060	     14.19184096	    -14.32303908	     -6.09430750	     -7.96528733	    -12.91631805
      4.90000000	      0.17667390	      1.51572450	    291.62848010	     -0.51683201	      0.90378561	      0.59244584	     25.61171075	     -2.04363630	      8.59248305	     -3.84267767	      3.44911205	     12.66194405	    -16.43682089	      6.25823230	     29.40823824	     -9.36424356	     14.36593348	    -14.28826852	     -5.84856598	     -8.01900900	    -13.15038679
      4.91000000	      0.13206278	      1.72914182	    292.19148185	     -0.51494121	      0.90171738	      0.60145515	     26.12739479	     -1.88837120	      8.79461194	     -4.73896023	      2.72577621	     12.37597895	    -16.58716414	      6.12077005	     29.62249039	     -9.88882261	     14.55186916	    -14.26546851	     -5.57052997	     -7.95872313	    -13.28557537
      4.92000000	     -0.02729669	      1.90444584	    292.72618846	     -0.51300813	      0.89985979	      0.61046967	     26.72408293	     -1.61269421	      9.00621270	     -5.99351706	      1.80844456	     12.07809107	    -16.64510089	      5.90909652	     29.75073575	    -10.57179710	     14.70397147	    -14.24274071	     -5.29007671	     -7.74527459	    -13.35891909
      4.93000000	     -0.29484539	      2.03025358	    293.22408963	     -0.51103067	      0.89827999	      0.61947496	     27.41151865	     -1.21423481	      9.14452531	     -7.60523072	      0.80050857	     11.78078962	    -16.62301525	      5.62746972	     29.78866753	    -11.40327187	     14.77992286	    -14.20423791	     -5.02037005	     -7.37896975	    -13.35737041
      4.94000000	     -0.64230244	      2.08504149	    293.68468678	     -0.50895662	      0.89705812	      0.62845625	     28.15258307	     -0.72159915	      9.14287643	     -9.51832696	     -0.16440804	     11.53740887	    -16.55237142	      5.29907571	     29.75080675	    -12.38148568	     14.75618972	    -14.13644195	     -4.79470045	     -6.87381008	    -13.27766957
      4.95000000	     -1.05001972	      2.05733561	    294.10807078	     -0.50674523	      0.89624753	      0.63745639	     28.90111311	     -0.16233085	      8.95880338	    -11.64495649	     -0.96292243	     11.41617217	    -16.46970716	      4.92805589	     29.64320856	    -13.46648719	     14.56876812	    -14.02550111	     -4.62493768	     -6.24414566	    -13.13988511
      4.96000000	     -1.48134987	      1.94294066	    294.49610356	     -0.50435234	      0.89588534	      0.64650649	     29.58816458	      0.41472346	      8.61019735	    -13.85926439	     -1.51872609	     11.47675282	    -16.40956608	      4.53943272	     29.48172680	    -14.62391344	     14.16031885	    -13.84893184	     -4.52413902	     -5.52445195	    -12.95852627
      4.97000000	     -1.91083361	      1.71849179	    294.86211384	     -0.50173930	      0.89602818	      0.65563243	     30.10489644	      0.97963389	      8.13755362	    -16.00154722	     -1.83201261	     11.73476375	    -16.41584598	      4.13460126	     29.27058893	    -15.82790409	     13.52106480	    -13.61179098	     -4.52688511	     -4.73038470	    -12.75743806
      4.98000000	     -2.31511585	      1.40733429	    295.21713650	     -0.49892170	      0.89665397	      0.66484160	     30.40841631	      1.50329559	      7.60984468	    -17.95509940	     -1.91610767	     12.16377711	    -16.47777757	      3.73182963	     29.01546770	    -17.06148965	     12.61395139	    -13.28298066	     -4.61434617	     -3.90623830	    -12.56035646
      4.99000000	     -2.68470630	      1.02542765	    295.58362399	     -0.49593564	      0.89772678	      0.67412556	     30.47543083	      1.97794329	      7.05474896	    -19.65282907	     -1.79600808	     12.64688948	    -16.58073975	      3.32751367	     28.70755244	    -18.31326216	     11.46833105	    -12.90394881	     -4.77409361	     -3.08040279	    -12.41819889
      5.00000000	     -3.00830213	      0.62804150	    295.97317616	     -0.49281769	      0.89915695	      0.68343313	     30.33396365	      2.38077257	      6.49135737	    -21.04662362	     -1.52339560	     13.11880779	    -16.66285522	      2.95082942	     28.36954218	    -19.59204100	     10.04381775	    -12.40161779	     -4.95474615	     -2.30428340	    -12.28998308
      5.01000000	     -3.28620175	      0.24702421	    296.41762176	     -0.48957520	      0.90084967	      0.69270120	     30.02517273	      2.69802559	      5.89427965	    -22.15331863	     -1.12953456	     13.42463477	    -16.68227113	      2.59437719	     27.97531806	    -20.89393976	      8.40741084	    -11.84353165	     -5.12470879	     -1.59374514	    -12.24647392
